<mxfile host="app.diagrams.net" agent="Mozilla/5.0 (Windows NT 10.0; Win64; x64) AppleWebKit/537.36 (KHTML, like Gecko) Chrome/134.0.0.0 Safari/537.36" version="26.1.3">
  <diagram name="Pagina-1" id="JLFO6V8GUD1piHR5XmVT">
    <mxGraphModel dx="1050" dy="557" grid="1" gridSize="10" guides="1" tooltips="1" connect="1" arrows="1" fold="1" page="1" pageScale="1" pageWidth="827" pageHeight="1169" math="0" shadow="0">
      <root>
        <mxCell id="0" />
        <mxCell id="1" parent="0" />
        <mxCell id="ke0FNOfGhZfMkv4-o5aK-37" style="edgeStyle=orthogonalEdgeStyle;rounded=0;orthogonalLoop=1;jettySize=auto;html=1;entryX=0.5;entryY=0;entryDx=0;entryDy=0;curved=1;endArrow=none;startFill=0;exitX=0.5;exitY=0;exitDx=0;exitDy=0;" parent="1" source="ke0FNOfGhZfMkv4-o5aK-2" target="ke0FNOfGhZfMkv4-o5aK-36" edge="1">
          <mxGeometry relative="1" as="geometry">
            <Array as="points">
              <mxPoint x="620" y="280" />
              <mxPoint x="750" y="280" />
            </Array>
          </mxGeometry>
        </mxCell>
        <mxCell id="ke0FNOfGhZfMkv4-o5aK-39" style="edgeStyle=orthogonalEdgeStyle;rounded=0;orthogonalLoop=1;jettySize=auto;html=1;curved=1;endArrow=none;startFill=0;entryX=0.328;entryY=0.016;entryDx=0;entryDy=0;entryPerimeter=0;" parent="1" source="ke0FNOfGhZfMkv4-o5aK-2" target="ke0FNOfGhZfMkv4-o5aK-38" edge="1">
          <mxGeometry relative="1" as="geometry">
            <Array as="points">
              <mxPoint x="620" y="310" />
              <mxPoint x="723" y="310" />
            </Array>
          </mxGeometry>
        </mxCell>
        <mxCell id="ke0FNOfGhZfMkv4-o5aK-2" value="Post" style="rounded=0;whiteSpace=wrap;html=1;" parent="1" vertex="1">
          <mxGeometry x="560" y="245" width="120" height="60" as="geometry" />
        </mxCell>
        <mxCell id="ke0FNOfGhZfMkv4-o5aK-3" value="Informatie" style="ellipse;whiteSpace=wrap;html=1;" parent="1" vertex="1">
          <mxGeometry x="50" y="50" width="100" height="50" as="geometry" />
        </mxCell>
        <mxCell id="ke0FNOfGhZfMkv4-o5aK-4" style="edgeStyle=orthogonalEdgeStyle;rounded=0;orthogonalLoop=1;jettySize=auto;html=1;exitX=0.25;exitY=0;exitDx=0;exitDy=0;entryX=0.584;entryY=0.94;entryDx=0;entryDy=0;entryPerimeter=0;endArrow=none;startFill=0;curved=1;" parent="1" target="ke0FNOfGhZfMkv4-o5aK-3" edge="1">
          <mxGeometry relative="1" as="geometry">
            <mxPoint x="190" y="140" as="sourcePoint" />
            <Array as="points">
              <mxPoint x="190" y="110" />
              <mxPoint x="108" y="110" />
            </Array>
          </mxGeometry>
        </mxCell>
        <mxCell id="ke0FNOfGhZfMkv4-o5aK-6" value="Naam" style="ellipse;whiteSpace=wrap;html=1;" parent="1" vertex="1">
          <mxGeometry x="10" y="109.5" width="100" height="50" as="geometry" />
        </mxCell>
        <mxCell id="ke0FNOfGhZfMkv4-o5aK-7" style="edgeStyle=orthogonalEdgeStyle;rounded=0;orthogonalLoop=1;jettySize=auto;html=1;exitX=0;exitY=0.5;exitDx=0;exitDy=0;entryX=1;entryY=0.5;entryDx=0;entryDy=0;endArrow=none;startFill=0;curved=1;" parent="1" source="ke0FNOfGhZfMkv4-o5aK-25" target="ke0FNOfGhZfMkv4-o5aK-6" edge="1">
          <mxGeometry relative="1" as="geometry">
            <mxPoint x="160" y="170" as="sourcePoint" />
            <Array as="points">
              <mxPoint x="170" y="140" />
              <mxPoint x="110" y="140" />
            </Array>
          </mxGeometry>
        </mxCell>
        <mxCell id="ke0FNOfGhZfMkv4-o5aK-13" style="edgeStyle=orthogonalEdgeStyle;rounded=0;orthogonalLoop=1;jettySize=auto;html=1;curved=1;endArrow=classicThin;startFill=0;exitX=0.5;exitY=0;exitDx=0;exitDy=0;entryX=1;entryY=0.5;entryDx=0;entryDy=0;endFill=1;" parent="1" source="ke0FNOfGhZfMkv4-o5aK-12" target="ke0FNOfGhZfMkv4-o5aK-25" edge="1">
          <mxGeometry relative="1" as="geometry">
            <Array as="points">
              <mxPoint x="290" y="265" />
              <mxPoint x="290" y="220" />
              <mxPoint x="310" y="220" />
              <mxPoint x="310" y="170" />
            </Array>
            <mxPoint x="290" y="170" as="targetPoint" />
          </mxGeometry>
        </mxCell>
        <mxCell id="mUF7j-wwGjykr5Vo64Zd-2" style="edgeStyle=orthogonalEdgeStyle;rounded=0;orthogonalLoop=1;jettySize=auto;html=1;curved=1;" parent="1" source="ke0FNOfGhZfMkv4-o5aK-12" edge="1">
          <mxGeometry relative="1" as="geometry">
            <mxPoint x="310" y="440" as="targetPoint" />
          </mxGeometry>
        </mxCell>
        <mxCell id="ke0FNOfGhZfMkv4-o5aK-12" value="" style="rhombus;whiteSpace=wrap;html=1;" parent="1" vertex="1">
          <mxGeometry x="240" y="264.75" width="96.5" height="50.5" as="geometry" />
        </mxCell>
        <mxCell id="ke0FNOfGhZfMkv4-o5aK-23" value="Likes" style="ellipse;whiteSpace=wrap;html=1;" parent="1" vertex="1">
          <mxGeometry x="590" y="370" width="100" height="50" as="geometry" />
        </mxCell>
        <mxCell id="ke0FNOfGhZfMkv4-o5aK-25" value="Account" style="rounded=0;whiteSpace=wrap;html=1;" parent="1" vertex="1">
          <mxGeometry x="170" y="139.5" width="120" height="60" as="geometry" />
        </mxCell>
        <mxCell id="ke0FNOfGhZfMkv4-o5aK-27" value="Wachtwoord" style="ellipse;whiteSpace=wrap;html=1;" parent="1" vertex="1">
          <mxGeometry x="50" y="160" width="100" height="50" as="geometry" />
        </mxCell>
        <mxCell id="ke0FNOfGhZfMkv4-o5aK-31" value="ID" style="ellipse;whiteSpace=wrap;html=1;" parent="1" vertex="1">
          <mxGeometry x="140" y="10" width="100" height="50" as="geometry" />
        </mxCell>
        <mxCell id="ke0FNOfGhZfMkv4-o5aK-36" value="Foto/Filmpje&lt;span style=&quot;color: rgba(0, 0, 0, 0); font-family: monospace; font-size: 0px; text-align: start; text-wrap-mode: nowrap;&quot;&gt;%3CmxGraphModel%3E%3Croot%3E%3CmxCell%20id%3D%220%22%2F%3E%3CmxCell%20id%3D%221%22%20parent%3D%220%22%2F%3E%3CmxCell%20id%3D%222%22%20value%3D%22Likes%22%20style%3D%22ellipse%3BwhiteSpace%3Dwrap%3Bhtml%3D1%3B%22%20vertex%3D%221%22%20parent%3D%221%22%3E%3CmxGeometry%20x%3D%22670%22%20y%3D%22400%22%20width%3D%22100%22%20height%3D%2250%22%20as%3D%22geometry%22%2F%3E%3C%2FmxCell%3E%3C%2Froot%3E%3C%2FmxGraphModel%3E&lt;/span&gt;" style="ellipse;whiteSpace=wrap;html=1;" parent="1" vertex="1">
          <mxGeometry x="700" y="189.5" width="100" height="50" as="geometry" />
        </mxCell>
        <mxCell id="ke0FNOfGhZfMkv4-o5aK-38" value="Views" style="ellipse;whiteSpace=wrap;html=1;" parent="1" vertex="1">
          <mxGeometry x="690" y="330" width="100" height="50" as="geometry" />
        </mxCell>
        <mxCell id="ke0FNOfGhZfMkv4-o5aK-41" value="1&lt;span style=&quot;color: rgba(0, 0, 0, 0); font-family: monospace; font-size: 0px; text-align: start; text-wrap-mode: nowrap;&quot;&gt;%3CmxGraphModel%3E%3Croot%3E%3CmxCell%20id%3D%220%22%2F%3E%3CmxCell%20id%3D%221%22%20parent%3D%220%22%2F%3E%3CmxCell%20id%3D%222%22%20value%3D%22Likes%22%20style%3D%22ellipse%3BwhiteSpace%3Dwrap%3Bhtml%3D1%3B%22%20vertex%3D%221%22%20parent%3D%221%22%3E%3CmxGeometry%20x%3D%22670%22%20y%3D%22400%22%20width%3D%22100%22%20height%3D%2250%22%20as%3D%22geometry%22%2F%3E%3C%2FmxCell%3E%3C%2Froot%3E%3C%2FmxGraphModel%3E&lt;/span&gt;" style="text;html=1;align=center;verticalAlign=middle;whiteSpace=wrap;rounded=0;" parent="1" vertex="1">
          <mxGeometry x="300" y="180" width="60" height="30" as="geometry" />
        </mxCell>
        <mxCell id="ke0FNOfGhZfMkv4-o5aK-48" value="N" style="text;html=1;align=center;verticalAlign=middle;whiteSpace=wrap;rounded=0;" parent="1" vertex="1">
          <mxGeometry x="250" y="380" width="60" height="30" as="geometry" />
        </mxCell>
        <mxCell id="5L42ICuzLXzISbHpHRuK-6" style="edgeStyle=orthogonalEdgeStyle;rounded=0;orthogonalLoop=1;jettySize=auto;html=1;exitX=0.75;exitY=0;exitDx=0;exitDy=0;endArrow=none;startFill=0;curved=1;" parent="1" source="ke0FNOfGhZfMkv4-o5aK-25" target="ke0FNOfGhZfMkv4-o5aK-31" edge="1">
          <mxGeometry relative="1" as="geometry">
            <mxPoint x="282" y="109" as="sourcePoint" />
            <mxPoint x="200" y="66" as="targetPoint" />
            <Array as="points">
              <mxPoint x="190" y="140" />
            </Array>
          </mxGeometry>
        </mxCell>
        <mxCell id="5L42ICuzLXzISbHpHRuK-7" style="edgeStyle=orthogonalEdgeStyle;rounded=0;orthogonalLoop=1;jettySize=auto;html=1;exitX=0.5;exitY=1;exitDx=0;exitDy=0;entryX=1;entryY=0.5;entryDx=0;entryDy=0;endArrow=none;startFill=0;curved=1;" parent="1" source="ke0FNOfGhZfMkv4-o5aK-25" target="ke0FNOfGhZfMkv4-o5aK-27" edge="1">
          <mxGeometry relative="1" as="geometry">
            <mxPoint x="240" y="260" as="sourcePoint" />
            <mxPoint x="170" y="305" as="targetPoint" />
            <Array as="points">
              <mxPoint x="230" y="210" />
              <mxPoint x="160" y="210" />
              <mxPoint x="160" y="185" />
            </Array>
          </mxGeometry>
        </mxCell>
        <mxCell id="5L42ICuzLXzISbHpHRuK-8" style="edgeStyle=orthogonalEdgeStyle;rounded=0;orthogonalLoop=1;jettySize=auto;html=1;curved=1;endArrow=none;startFill=0;entryX=0.5;entryY=0;entryDx=0;entryDy=0;" parent="1" source="ke0FNOfGhZfMkv4-o5aK-2" target="ke0FNOfGhZfMkv4-o5aK-23" edge="1">
          <mxGeometry relative="1" as="geometry">
            <mxPoint x="560" y="235" as="sourcePoint" />
            <mxPoint x="530" y="345" as="targetPoint" />
            <Array as="points">
              <mxPoint x="610" y="370" />
            </Array>
          </mxGeometry>
        </mxCell>
        <mxCell id="mUF7j-wwGjykr5Vo64Zd-9" style="edgeStyle=orthogonalEdgeStyle;rounded=0;orthogonalLoop=1;jettySize=auto;html=1;exitX=0;exitY=0.75;exitDx=0;exitDy=0;entryX=0.5;entryY=0;entryDx=0;entryDy=0;curved=1;endArrow=none;startFill=0;" parent="1" source="mUF7j-wwGjykr5Vo64Zd-3" target="mUF7j-wwGjykr5Vo64Zd-8" edge="1">
          <mxGeometry relative="1" as="geometry">
            <Array as="points">
              <mxPoint x="210" y="485" />
              <mxPoint x="210" y="520" />
              <mxPoint x="150" y="520" />
            </Array>
          </mxGeometry>
        </mxCell>
        <mxCell id="mUF7j-wwGjykr5Vo64Zd-14" style="edgeStyle=orthogonalEdgeStyle;rounded=0;orthogonalLoop=1;jettySize=auto;html=1;exitX=0;exitY=0.25;exitDx=0;exitDy=0;entryX=1;entryY=0.5;entryDx=0;entryDy=0;curved=1;endArrow=none;startFill=0;" parent="1" source="mUF7j-wwGjykr5Vo64Zd-3" target="mUF7j-wwGjykr5Vo64Zd-13" edge="1">
          <mxGeometry relative="1" as="geometry" />
        </mxCell>
        <mxCell id="mUF7j-wwGjykr5Vo64Zd-28" style="edgeStyle=orthogonalEdgeStyle;rounded=0;orthogonalLoop=1;jettySize=auto;html=1;entryX=0.5;entryY=0;entryDx=0;entryDy=0;curved=1;endArrow=none;startFill=0;" parent="1" source="mUF7j-wwGjykr5Vo64Zd-3" target="mUF7j-wwGjykr5Vo64Zd-24" edge="1">
          <mxGeometry relative="1" as="geometry">
            <Array as="points">
              <mxPoint x="410" y="470" />
              <mxPoint x="410" y="520" />
              <mxPoint x="360" y="520" />
              <mxPoint x="360" y="560" />
              <mxPoint x="380" y="560" />
            </Array>
          </mxGeometry>
        </mxCell>
        <mxCell id="mUF7j-wwGjykr5Vo64Zd-3" value="Werknemer" style="rounded=0;whiteSpace=wrap;html=1;" parent="1" vertex="1">
          <mxGeometry x="250" y="440" width="120" height="60" as="geometry" />
        </mxCell>
        <mxCell id="mUF7j-wwGjykr5Vo64Zd-23" style="edgeStyle=orthogonalEdgeStyle;rounded=0;orthogonalLoop=1;jettySize=auto;html=1;entryX=0;entryY=0.5;entryDx=0;entryDy=0;curved=1;" parent="1" source="mUF7j-wwGjykr5Vo64Zd-4" target="ke0FNOfGhZfMkv4-o5aK-2" edge="1">
          <mxGeometry relative="1" as="geometry" />
        </mxCell>
        <mxCell id="zkZ2bH8Skpy3dZnwlrr--1" style="edgeStyle=orthogonalEdgeStyle;rounded=0;orthogonalLoop=1;jettySize=auto;html=1;curved=1;entryX=1;entryY=0.5;entryDx=0;entryDy=0;" edge="1" parent="1" source="mUF7j-wwGjykr5Vo64Zd-4" target="ke0FNOfGhZfMkv4-o5aK-25">
          <mxGeometry relative="1" as="geometry">
            <mxPoint x="300" y="180" as="targetPoint" />
          </mxGeometry>
        </mxCell>
        <mxCell id="mUF7j-wwGjykr5Vo64Zd-4" value="" style="rhombus;whiteSpace=wrap;html=1;" parent="1" vertex="1">
          <mxGeometry x="383.5" y="139.5" width="96.5" height="60" as="geometry" />
        </mxCell>
        <mxCell id="mUF7j-wwGjykr5Vo64Zd-8" value="Wachtwoord" style="ellipse;whiteSpace=wrap;html=1;" parent="1" vertex="1">
          <mxGeometry x="110" y="510" width="100" height="50" as="geometry" />
        </mxCell>
        <mxCell id="mUF7j-wwGjykr5Vo64Zd-11" value="ID" style="ellipse;whiteSpace=wrap;html=1;" parent="1" vertex="1">
          <mxGeometry x="200" y="550" width="100" height="50" as="geometry" />
        </mxCell>
        <mxCell id="mUF7j-wwGjykr5Vo64Zd-12" style="edgeStyle=orthogonalEdgeStyle;rounded=0;orthogonalLoop=1;jettySize=auto;html=1;entryX=0.66;entryY=0.056;entryDx=0;entryDy=0;entryPerimeter=0;curved=1;endArrow=none;startFill=0;" parent="1" source="mUF7j-wwGjykr5Vo64Zd-3" target="mUF7j-wwGjykr5Vo64Zd-11" edge="1">
          <mxGeometry relative="1" as="geometry" />
        </mxCell>
        <mxCell id="mUF7j-wwGjykr5Vo64Zd-13" value="Naam" style="ellipse;whiteSpace=wrap;html=1;" parent="1" vertex="1">
          <mxGeometry x="100" y="440" width="100" height="50" as="geometry" />
        </mxCell>
        <mxCell id="mUF7j-wwGjykr5Vo64Zd-21" value="Intresse" style="ellipse;whiteSpace=wrap;html=1;" parent="1" vertex="1">
          <mxGeometry x="50" y="50" width="100" height="50" as="geometry" />
        </mxCell>
        <mxCell id="mUF7j-wwGjykr5Vo64Zd-24" value="Admin Controll" style="ellipse;whiteSpace=wrap;html=1;" parent="1" vertex="1">
          <mxGeometry x="330" y="570" width="100" height="50" as="geometry" />
        </mxCell>
        <mxCell id="mUF7j-wwGjykr5Vo64Zd-26" value="N" style="text;html=1;align=center;verticalAlign=middle;whiteSpace=wrap;rounded=0;" parent="1" vertex="1">
          <mxGeometry x="520" y="209.5" width="60" height="30" as="geometry" />
        </mxCell>
      </root>
    </mxGraphModel>
  </diagram>
</mxfile>
